<svg width="16" height="16" viewBox="0 0 16 16" fill="none" xmlns="http://www.w3.org/2000/svg">
<path d="M0.78125 0.90625V15.3438H15.2188V0.90625H0.78125ZM2.09375 2.21875H7.34375V7.46875H2.09375V2.21875ZM8.65625 2.21875H13.9062V7.46875H8.65625V2.21875ZM4.71875 3.53125L2.75 6.15625H6.6875L4.71875 3.53125ZM9.96875 3.53125V6.15625H12.5938V3.53125H9.96875ZM2.09375 8.78125H7.34375V14.0312H2.09375V8.78125ZM8.65625 8.78125H13.9062V14.0312H8.65625V8.78125ZM11.2812 9.4375L9.96875 11.4062L11.2812 13.375L12.5938 11.4062L11.2812 9.4375ZM4.71875 10.0938C4.34961 10.0938 4.03516 10.2236 3.77539 10.4834C3.5293 10.7295 3.40625 11.0371 3.40625 11.4062C3.40625 11.7754 3.5293 12.0898 3.77539 12.3496C4.03516 12.5957 4.34961 12.7188 4.71875 12.7188C5.08789 12.7188 5.39551 12.5957 5.6416 12.3496C5.90137 12.0898 6.03125 11.7754 6.03125 11.4062C6.03125 11.0371 5.90137 10.7295 5.6416 10.4834C5.39551 10.2236 5.08789 10.0938 4.71875 10.0938Z" fill="#903DF7"/>
</svg>
