<svg width="15" height="15" viewBox="0 0 15 15" fill="none" xmlns="http://www.w3.org/2000/svg">
<path d="M10.875 0.9375C10.2656 0.9375 9.70312 1.08984 9.1875 1.39453C8.67188 1.69922 8.26172 2.10937 7.95703 2.625C7.65234 3.14063 7.5 3.70313 7.5 4.3125C7.5 4.57031 7.54688 4.85156 7.64062 5.15625C7.71094 5.40234 7.82812 5.70703 7.99219 6.07031C8.25 6.66797 8.57812 7.30664 8.97656 7.98633C9.45703 8.80664 9.9375 9.5625 10.418 10.2539L10.875 10.9219L11.7891 9.58594C12.1523 9.03516 12.4805 8.50195 12.7734 7.98633C13.1719 7.30664 13.5 6.66797 13.7578 6.07031C13.9219 5.70703 14.0391 5.40234 14.1094 5.15625C14.2031 4.85156 14.25 4.57031 14.25 4.3125C14.25 3.70313 14.0977 3.14063 13.793 2.625C13.4883 2.10937 13.0781 1.69922 12.5625 1.39453C12.0469 1.08984 11.4844 0.9375 10.875 0.9375ZM5.23242 2.02734L0.75 3.94336V14.7363L5.26758 12.7852L9.76758 14.4727L14.25 12.5566V7.65234C13.957 8.21484 13.582 8.85938 13.125 9.58594V11.8184L10.3125 13.0137V12.0996L9.1875 10.4648V13.0664L5.8125 11.8008V3.43359L6.42773 3.66211C6.48633 3.27539 6.58594 2.91211 6.72656 2.57227L5.23242 2.02734ZM10.875 2.0625C11.2852 2.0625 11.6602 2.16211 12 2.36133C12.3516 2.56055 12.627 2.83594 12.8262 3.1875C13.0254 3.52734 13.125 3.90234 13.125 4.3125C13.125 4.42969 13.0898 4.61133 13.0195 4.85742C12.9492 5.0918 12.8555 5.34375 12.7383 5.61328C12.5273 6.09375 12.2109 6.69727 11.7891 7.42383C11.5195 7.88086 11.2441 8.32031 10.9629 8.74219L10.875 8.88281L10.7871 8.74219C10.5059 8.32031 10.2305 7.88086 9.96094 7.42383C9.53906 6.69727 9.22266 6.09375 9.01172 5.61328C8.89453 5.34375 8.80078 5.0918 8.73047 4.85742C8.66016 4.61133 8.625 4.42969 8.625 4.3125C8.625 3.90234 8.72461 3.52734 8.92383 3.1875C9.12305 2.83594 9.39258 2.56055 9.73242 2.36133C10.084 2.16211 10.4648 2.0625 10.875 2.0625ZM4.6875 3.46875V11.8184L1.875 13.0137V4.68164L4.6875 3.46875ZM10.875 3.46875C10.6406 3.46875 10.4414 3.55078 10.2773 3.71484C10.1133 3.87891 10.0312 4.07812 10.0312 4.3125C10.0312 4.54688 10.1133 4.74609 10.2773 4.91016C10.4414 5.07422 10.6406 5.15625 10.875 5.15625C11.1094 5.15625 11.3086 5.07422 11.4727 4.91016C11.6367 4.74609 11.7188 4.54688 11.7188 4.3125C11.7188 4.07812 11.6367 3.87891 11.4727 3.71484C11.3086 3.55078 11.1094 3.46875 10.875 3.46875Z" fill="#626262"/>
</svg>
