<svg width="17" height="18" viewBox="0 0 17 18" fill="none" xmlns="http://www.w3.org/2000/svg">
<path d="M6.6543 0.59375L6.55176 1.12695L6.16211 3.0752C5.57422 3.30762 5.00684 3.64258 4.45996 4.08008L2.55273 3.42383L2.04004 3.25977L0.194336 6.45898L2.06055 8.09961L2.04004 8.28418C1.97168 8.65332 1.9375 8.93359 1.9375 9.125C1.9375 9.31641 1.97168 9.59668 2.04004 9.96582L2.06055 10.1504L0.194336 11.791L2.04004 14.9902L2.55273 14.8262L4.45996 14.1699C5.00684 14.6074 5.57422 14.9424 6.16211 15.1748L6.6543 17.6562H10.3457L10.8379 15.1748C11.4258 14.9424 11.9932 14.6074 12.54 14.1699L14.4473 14.8262L14.96 14.9902L16.8057 11.791L14.9395 10.1504L14.96 9.96582C15.0283 9.59668 15.0625 9.31641 15.0625 9.125C15.0625 8.93359 15.0283 8.65332 14.96 8.28418L14.9395 8.09961L16.8057 6.45898L14.96 3.25977L14.4473 3.42383L12.54 4.08008C11.9932 3.64258 11.4258 3.30762 10.8379 3.0752L10.3457 0.59375H6.6543ZM7.7207 1.90625H9.2793L9.68945 3.99805L10.0586 4.12109C10.8105 4.35352 11.4736 4.73633 12.0479 5.26953L12.335 5.53613L14.3652 4.83887L15.1445 6.17188L13.832 7.34082L13.5244 7.58691L13.627 7.97656C13.709 8.3457 13.75 8.72852 13.75 9.125C13.75 9.52148 13.709 9.9043 13.627 10.2734L13.5449 10.6631L15.1445 12.0781L14.3652 13.4111L12.335 12.7139L12.0479 12.9805C11.4736 13.5137 10.8105 13.8965 10.0586 14.1289L9.68945 14.252L9.2793 16.3438H7.7207L7.31055 14.252L6.94141 14.1289C6.18945 13.8965 5.52637 13.5137 4.95215 12.9805L4.66504 12.7139L2.63477 13.4111L1.85547 12.0781L3.16797 10.9092L3.47559 10.6631L3.37305 10.2734C3.29102 9.9043 3.25 9.52148 3.25 9.125C3.25 8.72852 3.29102 8.3457 3.37305 7.97656L3.47559 7.58691L3.16797 7.34082L1.85547 6.17188L2.63477 4.83887L4.66504 5.53613L4.95215 5.26953C5.52637 4.73633 6.18945 4.35352 6.94141 4.12109L7.31055 3.99805L7.39258 3.6084L7.7207 1.90625ZM8.5 5.84375C7.91211 5.84375 7.36523 5.99414 6.85938 6.29492C6.35352 6.58203 5.9502 6.97852 5.64941 7.48438C5.3623 7.99023 5.21875 8.53711 5.21875 9.125C5.21875 9.71289 5.3623 10.2598 5.64941 10.7656C5.9502 11.2715 6.35352 11.6748 6.85938 11.9756C7.36523 12.2627 7.91211 12.4062 8.5 12.4062C9.08789 12.4062 9.63477 12.2627 10.1406 11.9756C10.6465 11.6748 11.043 11.2715 11.3301 10.7656C11.6309 10.2598 11.7812 9.71289 11.7812 9.125C11.7812 8.53711 11.6309 7.99023 11.3301 7.48438C11.043 6.97852 10.6465 6.58203 10.1406 6.29492C9.63477 5.99414 9.08789 5.84375 8.5 5.84375ZM8.5 7.15625C9.04688 7.15625 9.51172 7.34766 9.89453 7.73047C10.2773 8.11328 10.4688 8.57812 10.4688 9.125C10.4688 9.67188 10.2773 10.1367 9.89453 10.5195C9.51172 10.9023 9.04688 11.0938 8.5 11.0938C7.95312 11.0938 7.48828 10.9023 7.10547 10.5195C6.72266 10.1367 6.53125 9.67188 6.53125 9.125C6.53125 8.57812 6.72266 8.11328 7.10547 7.73047C7.48828 7.34766 7.95312 7.15625 8.5 7.15625Z" fill="#903DF7"/>
</svg>
