<svg width="96" height="96" viewBox="0 0 96 96" fill="none" xmlns="http://www.w3.org/2000/svg">
<rect x="85" y="81" width="3" height="3" fill="#0E6876"/>
<rect x="8" y="4" width="3" height="3" fill="#0E6876"/>
<g filter="url(#filter0_d_980_807)">
<path d="M8 4H76C82.6274 4 88 9.37258 88 16V84L47.5 43L8 4Z" fill="#17A2B8"/>
</g>
<path d="M44.5209 12.2021C42.6294 10.3106 40.1766 10.3946 38.1437 12.4275C36.1152 14.456 36.0312 16.9088 37.9227 18.8003C39.8098 20.6874 42.267 20.6079 44.2955 18.5793C46.3285 16.5464 46.408 14.0892 44.5209 12.2021ZM43.4072 13.3158C44.4502 14.3588 44.269 15.8747 42.9299 17.2137C41.5953 18.5484 40.0838 18.7252 39.0409 17.6822C37.9935 16.6348 38.1702 15.1234 39.5049 13.7887C40.844 12.4496 42.3643 12.2728 43.4072 13.3158ZM44.6632 25.3198L47.1735 22.8096L49.7677 25.4038L50.8239 24.3476L48.2297 21.7534L49.94 20.0431L52.7817 22.8847L53.8821 21.7843L49.7058 17.608L43.3286 23.9852L44.6632 25.3198ZM54.9835 33.4304L52.0932 30.5401L53.7018 28.9314L56.4286 31.6582L57.4539 30.6329L54.7271 27.9061L56.2651 26.3681L59.1554 29.2584L60.2558 28.158L56.0309 23.933L49.6536 30.3102L53.8786 34.5352L54.9835 33.4304ZM62.8686 32.8567L64.0044 33.9925C64.6673 34.6554 64.685 35.4686 64.0663 36.0873C63.4343 36.7193 62.6565 36.7104 61.9847 36.0387L60.8357 34.8896L62.8686 32.8567ZM59.8678 35.8575L60.9373 36.927L59.7927 40.4493L61.3041 41.9607L62.4929 38.0849C63.5138 38.5312 64.6452 38.2484 65.4628 37.4308C66.7223 36.1713 66.656 34.5582 65.1888 33.0909L62.5769 30.4791L56.1997 36.8563L57.5344 38.191L59.8678 35.8575ZM66.215 46.8716L71.4918 41.5948L73.3391 43.4421L74.4395 42.3417L69.4146 37.3168L68.3142 38.4172L70.1571 40.2601L64.8803 45.5369L66.215 46.8716ZM73.4681 54.1247L74.8868 55.5434L79.0454 46.9476L77.4765 45.3787L68.8852 49.5418L70.2552 50.9118L72.2881 49.8511L74.5288 52.0918L73.4681 54.1247ZM77.0037 47.3453L77.0346 47.3763L75.2403 50.8057L73.5742 49.1396L77.0037 47.3453Z" fill="white"/>
<defs>
<filter id="filter0_d_980_807" x="0" y="0" width="96" height="96" filterUnits="userSpaceOnUse" color-interpolation-filters="sRGB">
<feFlood flood-opacity="0" result="BackgroundImageFix"/>
<feColorMatrix in="SourceAlpha" type="matrix" values="0 0 0 0 0 0 0 0 0 0 0 0 0 0 0 0 0 0 127 0" result="hardAlpha"/>
<feOffset dy="4"/>
<feGaussianBlur stdDeviation="4"/>
<feComposite in2="hardAlpha" operator="out"/>
<feColorMatrix type="matrix" values="0 0 0 0 0 0 0 0 0 0 0 0 0 0 0 0 0 0 0.15 0"/>
<feBlend mode="normal" in2="BackgroundImageFix" result="effect1_dropShadow_980_807"/>
<feBlend mode="normal" in="SourceGraphic" in2="effect1_dropShadow_980_807" result="shape"/>
</filter>
</defs>
</svg>
